<?xml version="1.0" standalone="no"?><!DOCTYPE svg PUBLIC "-//W3C//DTD SVG 1.1//EN" "http://www.w3.org/Graphics/SVG/1.1/DTD/svg11.dtd"><svg t="1663321981306" class="icon" viewBox="0 0 1024 1024" version="1.1" xmlns="http://www.w3.org/2000/svg" p-id="5609" xmlns:xlink="http://www.w3.org/1999/xlink" width="20" height="20"><path d="M868.2 846.3H155.8c-33 0-59.8-26.8-59.8-59.8v-548c0-33 26.8-59.8 59.8-59.8h712.3c33 0 59.8 26.8 59.8 59.8v547.9c0.1 33.1-26.7 59.9-59.7 59.9zM155.8 210.7c-15.3 0-27.8 12.5-27.8 27.8v547.9c0 15.3 12.5 27.8 27.8 27.8h712.3c15.3 0 27.8-12.5 27.8-27.8V238.5c0-15.3-12.5-27.8-27.8-27.8H155.8z" p-id="5610"></path><path d="M116.4 633c-4.8 0-9.5-2.1-12.6-6.2-5.4-7-4.2-17 2.8-22.5l281-219.3c5.8-4.5 14-4.5 19.7 0l145.8 114.9c6.9 5.5 8.1 15.5 2.7 22.5s-15.5 8.1-22.5 2.7L397.4 417.9 126.2 629.6c-2.9 2.2-6.4 3.4-9.8 3.4z" p-id="5611"></path><path d="M907.6 601.6c-3 0-6-0.8-8.7-2.6L669.1 448.6 480.3 598.2c-6.9 5.5-17 4.3-22.5-2.6s-4.3-17 2.6-22.5l197.8-156.7c5.4-4.3 12.9-4.6 18.7-0.8l239.5 156.7c7.4 4.8 9.5 14.8 4.6 22.1-3.1 4.7-8.2 7.2-13.4 7.2z" p-id="5612"></path></svg>